<svg id="Capa_1" data-name="Capa 1" xmlns="http://www.w3.org/2000/svg" viewBox="0 0 201.33 186.67"><defs><style>.cls-1{fill:#ff6558;}.cls-2,.cls-3{fill:#fff;stroke:#ff6558;stroke-miterlimit:10;}.cls-2{stroke-width:6px;}.cls-3{stroke-width:5px;}</style></defs><title>logo-design</title><path class="cls-1" d="M156.54,177.25s19,2.87,13-36.59,21.66-47.49,21.66-47.49v.05S163.38,85.47,169,46,155.71,9.5,155.71,9.5L45.25,9.42s-19-3-13.15,36.52S10.18,93.3,10.18,93.3v-.05S37.91,101.17,32,140.65s13.12,36.53,13.12,36.53S156.3,176.79,156.54,177.25Z"/><path class="cls-1" d="M155.21,182.07c10.6,1.49,17.68-7.69,19.54-17.24,4-20.32-8.61-44.39,8.63-61a29.38,29.38,0,0,1,6.56-4.7c.47-.25,1-.48,1.44-.71.69-.32-.65.64.18-.07a2.94,2.94,0,0,1,.92-.32l-6.33-4.82v.05l6.33-4.82a7.36,7.36,0,0,1-1.68-.61c1.28.77-.55-.27-.87-.45-.88-.48-1.76-1-2.61-1.5a29.06,29.06,0,0,1-10.05-11.2c-8.84-17,.76-36-3.41-53.78-1.94-8.28-7.92-16.48-17.2-16.43-.86,0-4,0-1,.05-.59,0-1.18,0-1.78,0-3.4-.1-6.82,0-10.22,0L65.2,4.43c-6.65,0-13.29,0-19.94,0,2.46,0,.07,0-1-.05a15.15,15.15,0,0,0-4.05.57,17.33,17.33,0,0,0-9.83,7.67C19.51,30,32,51.85,25.76,70.43A29.83,29.83,0,0,1,15.44,84.92a32,32,0,0,1-5.16,3c-1.13.55.14-.59-.72.29a2.1,2.1,0,0,1-.71.24l6.33,4.82v-.05L8.85,98.08a2,2,0,0,1,.71.24c.73.73-.23-.25,1.45.65a31,31,0,0,1,6.46,4.38c7,6.38,10,15.48,10.36,24.76.47,13.18-4.1,26.26-.3,39.34,1.81,6.23,5.82,12.16,12.3,14.11a17.7,17.7,0,0,0,4.9.67c1.08,0,2.57,0,.45,0,.3,0,.62,0,.92,0,4.62.38,9.44,0,14.07,0q27.47-.08,54.95-.1,14,0,28,0c3.11,0,6.22,0,9.33.07.87,0,1.76.09,2.63,0,1.76-.09,1.84.9-1.1-.6,5.72,2.92,10.79-5.71,5-8.63-3-1.54-7.71-.83-10.95-.85-7.55-.05-15.1-.06-22.65-.06q-28.6,0-57.2.08l-19.11.06c-1.25,0-2.5,0-3.75,0s-2-.08-.35,0a6.86,6.86,0,0,1-1.15,0c-.79-.18-.49-.06.17.06a7.68,7.68,0,0,1-1.25-.27c-1.21-.44-.51.17-1.85-.9.25.2-1.44-1.37-1.66-1.67a14.06,14.06,0,0,1-2-4.26c-4-12.91,1.46-26.54.38-39.68C36.4,110,27.49,93.1,11.51,88.43a5,5,0,0,0-6.33,4.82v.05a5,5,0,0,0,6.33,4.82C18.81,96,25.25,90.52,29.64,84.5a44,44,0,0,0,7.72-20.34C38.77,53.52,36,43.31,36,32.7c0-5.43.46-12.31,4-16.3a5.51,5.51,0,0,1,4.46-2c2.23.07-3.2-.09.81.05.63,0,1.25,0,1.88,0,3.58.06,7.16,0,10.73,0l77.85.06c6.63,0,13.27.06,19.9,0,3.19,0-.91-.08.81-.05a6.17,6.17,0,0,1,1.12,0c-1.83-.37.58.14,1,.31a6.32,6.32,0,0,1,2.38,1.64,14,14,0,0,1,2.82,5.38c3.13,10.42-.05,21.28-.45,31.81-.35,9.23,1.23,18.72,5.75,26.87,4.33,7.8,12,15,20.76,17.54a5,5,0,0,0,6.33-4.82v-.05a5,5,0,0,0-6.33-4.82c-10.26,3-18.47,12.12-22.48,21.72-4.61,11.06-3.84,22.46-2.37,34.06,1,7.6,2.31,19.44-2.91,25.75a5.24,5.24,0,0,1-3.67,2.3c-.93.23-.6.16-.11.06-.18,0-.66-.06-.8,0s-2.94-.33.38.13C151.58,171.55,148.85,181.18,155.21,182.07Z"/><path class="cls-2" d="M74.35,41.79c-6,3.33-9.47,10.55-9.88,17.4s1.47,13.6,3.33,20.2l3.65,12.94c3.11,11,4.36,22.3,6.47,33.7.69,3.75.86,8.05,1.24,11.07.59,4.79.36,2.93,3.14,13.3,1.48,5.52,4,10.57,6,15.85a19.29,19.29,0,0,0,3.13,5.45,6.87,6.87,0,0,0,3.82,2.54,11,11,0,0,0,5.74.64,10.8,10.8,0,0,0,9.53-7.41c2.14-6.52,4.29-13,6-19.69,5.18-19.78,6.64-40.42,12.31-60.07,2.53-8.79,5.93-17.55,5.81-26.69S128.31,39.38,120,39.38"/><path class="cls-3" d="M96,14.35c-2.35,2.81-3.4,6.49-3.84,10.12s-.36,7.31-.76,11a5.51,5.51,0,0,1-.7,2.47c-1.21,1.83-3.87,1.75-6.06,1.57a18.39,18.39,0,0,0-7.79.66c-2.47.9-8,4.32-5.17,5.47,3.09.69,9.4-1.45,9.45.84L78.69,58.77a4.08,4.08,0,0,0,0,2.08,2.79,2.79,0,0,0,3.1,1.56,8.15,8.15,0,0,0,3.34-1.66l9.11-6.46a3,3,0,0,1,2.07-.79,2.84,2.84,0,0,1,1.57,1c4,4.31,6.7,10.5,12.35,12,1.45.31,1.33-4.79,1.09-7.3-.38-3.86-2.25-11.3-1.35-11.54,4.95-.79,15.06,3.7,14.88.86-.4-2.48-.86-5.08-2.46-7a10.15,10.15,0,0,0-7.06-3.24,52,52,0,0,0-8,.36,2.82,2.82,0,0,1-1.63-.22,2.66,2.66,0,0,1-1-2.32c-.17-6,3.77-11.43,4.77-17.39a9.32,9.32,0,0,0-.27-4.86C107,8,99,10.77,96,14.35Z"/></svg>